# xmcd
#
# Track frame offsets: 
#        150
#        16098
#        34071
#        50994
#        71517
#        89565
#        106113
#        120861
#        137334
#        157407
#        172005
#        186978
#        202926
#        220674
#        237447
#        252870
#        269568
#        287766
#
# Disc length: 4075 seconds
#
# Revision: 0
# Processed by: cddbd v1.5.2PL0 Copyright (c) Steve Scherf et al.
# Submitted via: ExactAudioCopyFreeDBPlugin 1.0
#
DISCID=070fe912
DTITLE=จินตหรา พูนลาภ - หมอลำ ออนซอน
DYEAR=1900
DGENRE=
TTITLE0=แตงโมจินตหรา
TTITLE1=รักสลายวันดอกฝ้ายบาน
TTITLE2=รักโผล่โสนแย้ม
TTITLE3=น้ำตาหล่นบนเถียงนา
TTITLE4=พญานาคฝากรัก
TTITLE5=เหงาใจในต่างแดน
TTITLE6=กอดหมอนข้าง
TTITLE7=ขอเพียงแค่สงสาร
TTITLE8=รักพังวังสามหมอ
TTITLE9=น้ำตาหยาดข้างพระธาตุนาดูน
TTITLE10=กางเกงยีนส์แห่งความหลัง
TTITLE11=ฮัลโหลโทรผืด
TTITLE12=เสน่ห์พ่อหม้าย
TTITLE13=รักร้าวที่บึงพลาญ
TTITLE14=ผ้าป่าน้ำตาซึม
TTITLE15=หมอชิตสองน้องคอย
TTITLE16=คิดฮอดอ้ายแท้ๆ แน่ว
TTITLE17=ขอบคุณแฟนๆ
EXTD=
EXTT0=
EXTT1=
EXTT2=
EXTT3=
EXTT4=
EXTT5=
EXTT6=
EXTT7=
EXTT8=
EXTT9=
EXTT10=
EXTT11=
EXTT12=
EXTT13=
EXTT14=
EXTT15=
EXTT16=
EXTT17=
PLAYORDER=
